<svg enable-background="new 0 0 160 319.8" version="1.1" viewBox="0 0 160 319.8" xml:space="preserve" xmlns="http://www.w3.org/2000/svg">
<path d="m136 0h-112c-13.2 0-24 10.8-24 24v271.8c0 13.2 10.8 24 24 24h112c13.2 0 24-10.8 24-24v-271.8c0-13.2-10.8-24-24-24zm-120 48h128v8h-128v-8zm8-32h112c4.4 0 8 3.6 8 8v8h-128v-8c0-4.4 3.6-8 8-8zm112 287.8h-112c-4.4 0-8-3.6-8-8v-223.8h128v223.9c0 4.4-3.6 7.9-8 7.9z"></path>
<path d="m80 168c13.2 0 24-10.8 24-24s-10.8-24-24-24-24 10.8-24 24 10.8 24 24 24zm0-32c4.4 0 8 3.6 8 8s-3.6 8-8 8-8-3.6-8-8 3.6-8 8-8z"></path>
<path d="m112 216h-64c-4.4 0-8 3.6-8 8s3.6 8 8 8h64c4.4 0 8-3.6 8-8s-3.6-8-8-8z"></path>
<path d="m112 240h-64c-4.4 0-8 3.6-8 8s3.6 8 8 8h64c4.4 0 8-3.6 8-8s-3.6-8-8-8z"></path>
<path d="m112 264h-64c-4.4 0-8 3.6-8 8s3.6 8 8 8h64c4.4 0 8-3.6 8-8s-3.6-8-8-8z"></path>
</svg>